<?xml version="1.0" standalone="no"?>
<!DOCTYPE svg PUBLIC "-//W3C//DTD SVG 20010904//EN"
 "http://www.w3.org/TR/2001/REC-SVG-20010904/DTD/svg10.dtd">
<svg version="1.0" xmlns="http://www.w3.org/2000/svg"
 width="161.000000pt" height="74.000000pt" viewBox="0 0 161.000000 74.000000"
 preserveAspectRatio="xMidYMid meet">

<g transform="translate(0.000000,74.000000) scale(0.100000,-0.100000)"
fill="#000000" stroke="none">
<path d="M324 705 c17 -43 18 -56 3 -73 -8 -9 -17 -33 -19 -52 -3 -32 -6 -35
-38 -38 -19 -2 -43 -11 -52 -19 -17 -15 -30 -14 -73 3 -18 7 -18 6 -6 -9 11
-14 11 -20 1 -32 -13 -16 0 -21 16 -6 16 16 107 14 156 -4 66 -24 82 -16 74
38 -4 23 -13 51 -20 62 -14 21 -9 86 10 130 7 18 6 18 -9 6 -14 -11 -20 -11
-34 0 -15 12 -16 12 -9 -6z"/>
<path d="M202 658 c-16 -16 -15 -38 2 -38 7 0 19 -7 27 -16 10 -13 10 -17 -2
-25 -10 -6 -3 -9 24 -9 35 0 37 2 37 30 0 17 -4 30 -10 30 -5 0 -10 -5 -10
-10 0 -7 -6 -7 -20 0 -11 6 -20 17 -20 25 0 20 -15 26 -28 13z"/>
<path d="M240 651 c0 -6 4 -13 10 -16 6 -3 7 1 4 9 -7 18 -14 21 -14 7z"/>
<path d="M190 606 c0 -2 7 -7 16 -10 8 -3 12 -2 9 4 -6 10 -25 14 -25 6z"/>
<path d="M414 582 c-6 -4 -7 -18 -4 -32 l7 -25 8 28 c8 31 5 40 -11 29z"/>
<path d="M645 546 c-46 -46 -45 -109 2 -152 22 -20 35 -24 72 -22 41 3 46 6
49 28 3 20 1 23 -9 13 -23 -23 -75 -16 -98 13 -12 15 -21 34 -21 44 0 34 39
70 75 70 50 0 75 -37 75 -111 0 -46 3 -59 15 -59 12 0 15 13 15 60 0 100 -31
140 -110 140 -30 0 -47 -6 -65 -24z"/>
<path d="M901 549 c-32 -30 -41 -61 -41 -145 0 -57 3 -74 14 -74 11 0 15 20
17 84 3 65 8 89 23 105 25 27 79 28 106 1 57 -57 -18 -148 -91 -110 -16 9 -19
7 -19 -9 0 -42 89 -44 131 -2 65 66 20 171 -73 171 -31 0 -51 -6 -67 -21z"/>
<path d="M1129 540 c-20 -19 -29 -38 -27 -52 3 -21 9 -23 86 -26 62 -2 82 -6
82 -17 0 -34 -82 -59 -108 -33 -9 9 -15 9 -24 -1 -11 -10 -9 -15 6 -27 53 -39
156 5 156 67 0 33 -11 38 -110 41 l-65 3 23 23 c23 23 85 31 97 12 5 -8 11 -7
21 1 22 18 -12 38 -64 39 -35 0 -49 -6 -73 -30z"/>
<path d="M1340 470 c0 -82 3 -100 15 -100 12 0 15 18 15 100 0 82 -3 100 -15
100 -12 0 -15 -18 -15 -100z"/>
<path d="M490 510 c-8 -5 -26 -10 -40 -10 -17 0 -30 -9 -42 -30 -16 -28 -16
-30 0 -30 9 0 32 9 50 20 42 26 43 26 31 -10 -17 -47 -71 -88 -126 -95 -87
-11 -101 -16 -142 -46 -91 -65 -117 -211 -51 -291 l19 -23 22 21 c21 22 21 23
4 68 -20 53 -15 101 16 140 28 36 66 54 130 62 100 13 177 72 199 155 10 35 9
44 -6 60 -19 21 -41 24 -64 9z"/>
<path d="M266 434 c-6 -15 -1 -16 28 -5 19 7 19 8 -1 13 -14 4 -24 0 -27 -8z"/>
<path d="M862 243 c5 -25 28 -28 28 -4 0 12 -6 21 -16 21 -9 0 -14 -7 -12 -17z"/>
</g>
</svg>
